<svg xmlns="http://www.w3.org/2000/svg" width="120" height="120" viewBox="0 0 120 120">
  <path d="M60 8 C88 8, 108 30, 106 58 C104 82, 84 102, 60 100 C36 98, 16 78, 18 54 C20 30, 38 10, 62 12"
        fill="none" stroke="#5A3E2E" stroke-width="9" stroke-linecap="round"/>
  <path d="M60 24 C80 24, 96 40, 94 60 C92 76, 78 90, 62 88 C46 86, 32 72, 34 56 C36 42, 48 28, 64 30"
        fill="none" stroke="#B8693A" stroke-width="8" stroke-linecap="round"/>
  <path d="M60 38 C72 38, 82 48, 80 60 C78 70, 69 78, 59 76 C49 74, 42 65, 44 55 C46 46, 54 38, 62 40"
        fill="none" stroke="#9AAD6E" stroke-width="6" stroke-linecap="round"/>
</svg>
